# xmcd CD database file
#
# Track frame offsets:
#	150
#	19125
#	40850
#	61115
#	80788
#	104333
#	122227
#	142371
#	162756
#	176822
#	195112
#	215300
#	235820
#	255636
#
# Disc length: 3662 seconds
#
# Revision: 0
# Processed by: cddbd v1.4PL0 Copyright (c) Steve Scherf et al.
# Submitted via: CDex 1.50Beta7
#
DISCID=c10e4c0e
DTITLE=Chris Rhodes - One
DYEAR=1999
DGENRE=Jazz
TTITLE0=Welcome to the Club
TTITLE1=The Truth Is
TTITLE2=Trade Winds
TTITLE3=Ain't Nobody Gonna Love Me Better
TTITLE4=Catwalk
TTITLE5=Anniversary
TTITLE6=The Best of Me
TTITLE7=No-Win Situation
TTITLE8=Last-Call
TTITLE9=Southside of the Bay
TTITLE10=Tell it to Tomorrow
TTITLE11=Why Cry to Me
TTITLE12=I Don't Know How to Love
TTITLE13=Follow Through
EXTD=YEAR: 1999
EXTT0=
EXTT1=
EXTT2=
EXTT3=
EXTT4=
EXTT5=
EXTT6=
EXTT7=
EXTT8=
EXTT9=
EXTT10=
EXTT11=
EXTT12=
EXTT13=
PLAYORDER=
